# xmcd
#
# Track frame offsets:
#	150
#	14954
#	27911
#	44206
#	62412
#	81330
#	99432
#	112661
#	127537
#	142536
#	157518
#	173958
#	191703
#	204234
#	219445
#	232741
#	246736
#	264782
#	279473
#	292718
#	307068
#	324768
#
# Disc length: 4547 seconds
#
# Revision: 2
# Processed by: cddbd v1.5.2PL0 Copyright (c) Steve Scherf et al.
# Submitted via: EasyCDDAExtractor 11.5.0.1
#
DISCID=1e11c116
DTITLE=Various Artist - NCT 083
DYEAR=2006
DGENRE=Country
TTITLE0=Hank Williams Jr. ft. Gretchen Wilson, Big And Rich and Van Zant - Tha
TTITLE0=t's How They Do It In Dixie
TTITLE1=Sugarland - Down In Mississippi (Up To No Good)
TTITLE2=Faith Hill - The Lucky One
TTITLE3=Brad Paisley - The World
TTITLE4=George Strait - The Seashores Of Old Mexico
TTITLE5=Carrie Underwood - Don't Forget To Remember Me
TTITLE6=The Lost Trailers - Chicken Fried
TTITLE7=Danielle Peck - Findin' A Good Man
TTITLE8=Josh Gracin - Favorite State of Mind
TTITLE9=Shannon Brown - Pearls
TTITLE10=Radney Foster - Prove Me Right
TTITLE11=John Corbett - Good To Go
TTITLE12=Billy Currington - Why, Why, Why
TTITLE13=Bomshel - It Was An Absolutely Finger Lickin, Grits and Chicken Count
TTITLE13=ry Music Love Song
TTITLE14=Jake Owen - Yee Haw
TTITLE15=Megan Mullins - Ain't What It Used To Be
TTITLE16=Jace Everett - Nowhere In The Neighborhood
TTITLE17=Cory Morrow - Good Intentions
TTITLE18=Carolina Rain - Get Outta My Way
TTITLE19=Cowboy Crush - Hillbilly Nation
TTITLE20=Hot Apple Pie - Easy Does It
TTITLE21=Two Tons Of Steel - Vegas
EXTD=
EXTT0=
EXTT1=
EXTT2=
EXTT3=
EXTT4=
EXTT5=
EXTT6=
EXTT7=
EXTT8=
EXTT9=
EXTT10=
EXTT11=
EXTT12=
EXTT13=
EXTT14=
EXTT15=
EXTT16=
EXTT17=
EXTT18=
EXTT19=
EXTT20=
EXTT21=
PLAYORDER=
